<svg aria-hidden="true" style="position: absolute; width: 0; height: 0; overflow: hidden;" version="1.1" xmlns="http://www.w3.org/2000/svg" xmlns:xlink="http://www.w3.org/1999/xlink">
<defs>
<symbol id="icon-close" viewBox="0 0 32 32">
<path d="M21.589 8.459l-5.657 5.656-5.656-5.656-1.885 1.885 5.656 5.656-5.656 5.656 1.885 1.885 5.656-5.656 5.657 5.656 1.885-1.885-5.656-5.656 5.656-5.656-1.885-1.885z"></path>
</symbol>
<symbol id="icon-email" viewBox="0 0 32 32">
<path d="M26.667 5.333h-21.333c-1.471 0-2.667 1.196-2.667 2.667v16c0 1.471 1.196 2.667 2.667 2.667h21.333c1.471 0 2.667-1.196 2.667-2.667v-16c0-1.471-1.196-2.667-2.667-2.667zM26.667 8v0.681l-10.667 8.297-10.667-8.296v-0.683h21.333zM5.333 24v-11.941l9.848 7.66c0.233 0.183 0.522 0.283 0.819 0.283s0.585-0.1 0.819-0.283l9.848-7.66 0.003 11.941h-21.336z"></path>
</symbol>
<symbol id="icon-instagram" viewBox="0 0 32 32">
<path d="M15.998 6.161c3.206 0 3.585 0.014 4.846 0.071 1.172 0.052 1.804 0.248 2.226 0.412 0.558 0.216 0.961 0.478 1.378 0.895 0.422 0.422 0.679 0.82 0.9 1.378 0.164 0.422 0.361 1.059 0.412 2.226 0.056 1.266 0.071 1.645 0.071 4.847s-0.014 3.585-0.071 4.847c-0.052 1.172-0.248 1.804-0.412 2.227-0.216 0.558-0.478 0.961-0.895 1.377-0.422 0.422-0.82 0.679-1.378 0.9-0.422 0.164-1.060 0.361-2.226 0.412-1.266 0.056-1.645 0.071-4.847 0.071s-3.585-0.014-4.847-0.071c-1.172-0.052-1.804-0.248-2.226-0.412-0.558-0.216-0.961-0.478-1.378-0.895-0.422-0.422-0.679-0.82-0.9-1.378-0.164-0.422-0.361-1.060-0.412-2.226-0.056-1.266-0.071-1.645-0.071-4.847s0.014-3.585 0.071-4.847c0.052-1.172 0.248-1.804 0.412-2.226 0.216-0.558 0.478-0.961 0.895-1.378 0.422-0.422 0.82-0.679 1.378-0.9 0.422-0.164 1.059-0.361 2.226-0.412 1.261-0.056 1.641-0.071 4.847-0.071h0.001zM15.998 4.001c-3.258 0-3.665 0.014-4.945 0.071-1.275 0.056-2.151 0.262-2.91 0.558-0.792 0.309-1.462 0.717-2.127 1.387-0.67 0.666-1.078 1.336-1.387 2.123-0.295 0.764-0.502 1.636-0.558 2.91-0.056 1.285-0.071 1.692-0.071 4.949s0.014 3.665 0.071 4.945c0.056 1.275 0.262 2.151 0.558 2.91 0.31 0.792 0.717 1.462 1.387 2.127 0.665 0.665 1.336 1.078 2.123 1.383 0.764 0.295 1.636 0.502 2.91 0.558 1.279 0.056 1.687 0.071 4.945 0.071s3.666-0.014 4.945-0.071c1.275-0.056 2.151-0.262 2.91-0.558 0.787-0.305 1.458-0.717 2.123-1.383s1.078-1.336 1.383-2.123c0.295-0.764 0.502-1.635 0.558-2.91 0.056-1.279 0.071-1.687 0.071-4.945s-0.014-3.665-0.071-4.945c-0.056-1.275-0.262-2.151-0.558-2.91-0.295-0.797-0.703-1.467-1.373-2.133-0.665-0.665-1.336-1.078-2.123-1.383-0.764-0.295-1.635-0.502-2.91-0.558-1.284-0.061-1.692-0.075-4.949-0.075l-0.001 0.001z"></path>
<path d="M15.998 9.836c-3.402 0-6.163 2.76-6.163 6.163s2.76 6.163 6.163 6.163c3.403 0 6.163-2.76 6.163-6.163s-2.76-6.163-6.163-6.163zM15.998 19.997c-2.208 0-3.998-1.79-3.998-3.998s1.79-3.998 3.998-3.998c2.208 0 3.998 1.79 3.998 3.998s-1.79 3.998-3.998 3.998z"></path>
<path d="M23.843 9.592c0 0.795-0.644 1.439-1.439 1.439s-1.439-0.644-1.439-1.439 0.644-1.439 1.439-1.439c0.795 0 1.439 0.644 1.439 1.439z"></path>
</symbol>
<symbol id="icon-map-pin" viewBox="0 0 32 32">
<path d="M16 22.667l1.333-2.667v-6.856c2.295-0.596 4-2.667 4-5.144 0-2.941-2.392-5.333-5.333-5.333s-5.333 2.392-5.333 5.333c0 2.477 1.705 4.548 4 5.144v6.856l1.333 2.667zM13.333 8c0-1.471 1.196-2.667 2.667-2.667s2.667 1.196 2.667 2.667c0 1.471-1.196 2.667-2.667 2.667s-2.667-1.196-2.667-2.667z"></path>
<path d="M21.689 14.084l-0.711 2.571c3.455 0.955 5.688 2.791 5.688 4.679 0 2.523-4.38 5.333-10.667 5.333s-10.667-2.811-10.667-5.333c0-1.888 2.233-3.724 5.689-4.68l-0.711-2.571c-4.716 1.304-7.645 4.081-7.645 7.251 0 4.485 5.857 8 13.333 8s13.333-3.515 13.333-8c0-3.169-2.929-5.947-7.644-7.249z"></path>
</symbol>
<symbol id="icon-map" viewBox="0 0 32 32">
<path d="M16 18.667c2.941 0 5.333-2.392 5.333-5.333s-2.392-5.333-5.333-5.333c-2.941 0-5.333 2.392-5.333 5.333s2.392 5.333 5.333 5.333zM16 10.667c1.471 0 2.667 1.196 2.667 2.667s-1.196 2.667-2.667 2.667c-1.471 0-2.667-1.196-2.667-2.667s1.196-2.667 2.667-2.667z"></path>
<path d="M15.227 29.086c0.226 0.161 0.496 0.248 0.773 0.248s0.548-0.087 0.773-0.248c0.405-0.287 9.932-7.165 9.893-15.752 0-5.881-4.785-10.667-10.667-10.667s-10.667 4.785-10.667 10.66c-0.039 8.593 9.488 15.472 9.893 15.759zM16 5.334c4.412 0 8 3.588 8 8.007 0.028 5.917-5.851 11.231-8 12.973-2.148-1.744-8.028-7.059-8-12.98 0-4.412 3.588-8 8-8z"></path>
</symbol>
<symbol id="icon-menu" viewBox="0 0 32 32">
<path d="M5.333 8h21.333v2.667h-21.333v-2.667zM5.333 14.667h21.333v2.667h-21.333v-2.667zM5.333 21.333h21.333v2.667h-21.333v-2.667z"></path>
</symbol>
<symbol id="icon-phone" viewBox="0 0 32 32">
<path d="M23.61 16.39c-0.124-0.124-0.271-0.222-0.432-0.289s-0.335-0.102-0.51-0.102c-0.175 0-0.349 0.035-0.51 0.102s-0.309 0.165-0.432 0.289l-2.125 2.125c-0.985-0.293-2.824-0.96-3.989-2.125s-1.832-3.004-2.125-3.989l2.125-2.125c0.124-0.124 0.222-0.271 0.289-0.432s0.102-0.335 0.102-0.51-0.035-0.348-0.102-0.51c-0.067-0.162-0.165-0.309-0.289-0.432l-5.333-5.333c-0.124-0.124-0.271-0.222-0.432-0.289s-0.335-0.102-0.51-0.102-0.348 0.035-0.51 0.102c-0.162 0.067-0.309 0.165-0.432 0.289l-3.616 3.616c-0.507 0.507-0.792 1.203-0.781 1.913 0.031 1.899 0.533 8.493 5.731 13.691s11.792 5.699 13.692 5.731h0.037c0.704 0 1.369-0.277 1.873-0.781l3.616-3.616c0.124-0.124 0.222-0.271 0.289-0.432s0.102-0.335 0.102-0.51-0.035-0.349-0.102-0.51c-0.067-0.162-0.165-0.309-0.289-0.432l-5.333-5.335zM23.441 25.34c-1.664-0.028-7.357-0.475-11.831-4.949-4.488-4.488-4.923-10.201-4.949-11.832l2.673-2.673 3.448 3.448-1.724 1.724c-0.157 0.157-0.272 0.35-0.335 0.562s-0.073 0.437-0.027 0.654c0.032 0.153 0.815 3.789 3.028 6.003s5.849 2.996 6.003 3.028c0.217 0.047 0.442 0.038 0.654-0.025s0.406-0.179 0.562-0.336l1.725-1.724 3.448 3.448-2.675 2.673z"></path>
</symbol>
<symbol id="icon-shevron" viewBox="0 0 32 32">
<path d="M12.308 4.726l10.646 10.56-10.646 10.56 3.466 3.495 14.171-14.055-14.171-14.055-3.466 3.495z"></path>
<path d="M3.466 1.231l-3.466 3.495 10.646 10.56-10.646 10.56 3.466 3.495 14.171-14.055-14.171-14.055z"></path>
</symbol>
<symbol id="icon-chevron-right" viewBox="0 0 32 32">
<path d="M12.943 22.599l7.609-7.609-7.609-7.609-1.885 1.885 5.724 5.724-5.724 5.724 1.885 1.885z"></path>
</symbol>
<symbol id="icon-star-black" viewBox="0 0 32 32">
<path d="M14.761 4.816c0.458-1.089 2.019-1.089 2.478 0l2.705 6.425c0.193 0.459 0.63 0.772 1.132 0.812l7.021 0.556c1.19 0.094 1.672 1.561 0.766 2.328l-5.349 4.527c-0.382 0.323-0.549 0.831-0.432 1.314l1.634 6.769c0.277 1.147-0.986 2.053-2.004 1.439l-6.011-3.627c-0.429-0.259-0.969-0.259-1.399 0l-6.011 3.627c-1.018 0.615-2.281-0.292-2.004-1.439l1.634-6.769c0.117-0.483-0.050-0.991-0.432-1.314l-5.35-4.527c-0.906-0.767-0.424-2.234 0.766-2.328l7.021-0.556c0.502-0.040 0.938-0.353 1.132-0.812l2.705-6.425z"></path>
</symbol>
<symbol id="icon-star-white" viewBox="0 0 32 32">
<path stroke-linejoin="miter" stroke-linecap="butt" stroke-miterlimit="4" stroke-width="1.3333" d="M15.375 5.076c0.229-0.545 1.021-0.545 1.25 0l2.704 6.424c0.291 0.691 0.947 1.16 1.694 1.219l7.021 0.556c0.61 0.048 0.828 0.78 0.388 1.154l-5.35 4.527c-0.573 0.485-0.826 1.25-0.65 1.98l1.635 6.768c0.133 0.549-0.482 1.031-1.013 0.711h-0.001l-6.009-3.626c-0.641-0.387-1.447-0.387-2.089 0l-6.010 3.626c-0.531 0.32-1.146-0.162-1.013-0.711l1.635-6.768c0.176-0.73-0.077-1.495-0.65-1.98l-5.35-4.527c-0.44-0.373-0.222-1.105 0.388-1.154l7.021-0.556c0.747-0.059 1.403-0.527 1.694-1.219l2.704-6.424z"></path>
</symbol>
<symbol id="icon-twitter" viewBox="0 0 32 32">
<path d="M22.901 5.657h3.68l-8.040 9.037 9.459 12.297h-7.406l-5.801-7.458-6.637 7.458h-3.682l8.6-9.666-9.074-11.668h7.594l5.243 6.817 6.064-6.817zM21.61 24.824h2.039l-13.163-17.115h-2.188l13.312 17.115z"></path>
</symbol>
<symbol id="icon-Frame-1-1" viewBox="0 0 56 32">
<path d="M22.524 8.6c-0.257-2.557-2.398-4.536-5.001-4.536-2.775 0-5.025 2.25-5.025 5.025 0 0.172 0.009 0.342 0.026 0.51l-0.002-0.021c0.257 2.557 2.398 4.536 5.001 4.536 2.775 0 5.025-2.25 5.025-5.025 0-0.172-0.009-0.342-0.026-0.51l0.002 0.021zM18.778 5.249c0.061 0 0.107 0.012 0.164 0.028l0.012 0.004c0.022 0.112 0 0.164-0.059 0.259-0.102 0.167-0.216 0.327-0.331 0.487-0.201 0.282-0.403 0.564-0.54 0.885-0.3 0.697-0.23 1.509-0.16 2.331 0.062 0.719 0.124 1.444-0.060 2.104-0.222 0.794-0.778 1.313-1.474 1.7-0.039 0.006-0.082 0.004-0.123 0l-0.025-0.002-0.016-0.001-0.007-0.012c-0.039-0.076-0.042-0.080-0.013-0.166 0.051-0.127 0.112-0.236 0.185-0.337l-0.003 0.005c0.027-0.041 0.053-0.081 0.076-0.12 0.242-0.404 0.48-0.839 0.554-1.309 0.092-0.588 0.043-1.193-0.006-1.797-0.062-0.768-0.125-1.535 0.102-2.268 0.28-0.9 0.935-1.37 1.724-1.789zM34.356 23.2c-0.294-2.449-2.36-4.33-4.865-4.33-2.705 0-4.898 2.193-4.898 4.898 0 0.2 0.012 0.398 0.035 0.592l-0.002-0.023c0.295 2.449 2.36 4.33 4.865 4.33 2.705 0 4.898-2.193 4.898-4.898 0-0.2-0.012-0.398-0.035-0.592l0.002 0.023zM28.932 20.028c0.65-0.048 1.258 0.11 1.782 0.5 0.848 0.631 1.281 1.673 1.425 2.693 0.151 1.077 0.136 2.573-0.565 3.476-0.382 0.492-0.867 0.692-1.467 0.764-0.077 0.008-0.166 0.012-0.256 0.012-0.579 0-1.115-0.185-1.552-0.5l0.008 0.005c-0.825-0.596-1.248-1.573-1.402-2.553-0.175-1.116-0.169-2.679 0.555-3.62 0.385-0.501 0.865-0.7 1.472-0.779zM6.45 0.050c0.871-0.114 1.858-0.025 2.706 0.189 0.516 0.13 1.031 0.307 1.557 0.381 0.304 0.043 0.622 0.039 0.927 0.044 0.050 0.849 0.213 2.883 0.116 3.63-0.156 0.030-0.276 0.022-0.433 0-0.161-0.186-0.236-0.602-0.333-0.843-0.364-0.88-1.052-1.565-1.911-1.916l-0.023-0.008c-1.102-0.452-2.417-0.394-3.502 0.075-1.14 0.492-2.069 1.478-2.523 2.633-0.701 1.788-0.696 4.083 0.091 5.844 0.545 1.22 1.516 2.293 2.784 2.769 1.212 0.454 2.528 0.32 3.689-0.212 0.518-0.264 0.997-0.658 1.305-1.156 0.175-0.282 0.302-0.818 0.58-1l0.077 0.030c0.297 0.376 0.408 1.55 0.505 2.056-1.118 0.985-2.468 1.639-3.95 1.834-1.941 0.255-3.967-0.137-5.536-1.347-1.428-1.102-2.294-2.833-2.509-4.607-0.249-2.062 0.206-4.142 1.511-5.783 1.203-1.511 2.972-2.396 4.874-2.613zM42.902 4.947c-0.52-0.13-1.148-0.199-1.682-0.133-1.243 0.122-2.306 0.602-3.114 1.576-0.752 0.912-1.208 2.093-1.208 3.38 0 0.183 0.009 0.365 0.027 0.543l-0.002-0.022c0.124 1.197 0.676 2.388 1.63 3.147 1.004 0.796 2.422 1.020 3.668 0.873 1.106-0.131 2.086-0.608 2.772-1.5 0.314-0.409 0.542-0.869 0.722-1.35-0.022-0.020-0.044-0.042-0.066-0.064-0.107-0.104-0.216-0.212-0.358-0.255l-0.033 0.015c-0.044 0.018-0.061 0.025-0.097 0.080-0.592 0.871-1.269 1.447-2.329 1.644-0.825 0.155-1.644 0.012-2.338-0.473-0.548-0.398-0.974-0.933-1.231-1.555l-0.009-0.024c1.267-0.75 2.643-1.51 4.1-1.809 0.288-0.059 0.582-0.092 0.876-0.124 0.308-0.036 0.615-0.070 0.914-0.134 0.2-0.044 0.344-0.084 0.412-0.296 0.171-0.533-0.098-1.403-0.367-1.862-0.491-0.84-1.352-1.422-2.287-1.655zM41.613 5.794c0.237 0.002 0.491 0.018 0.719 0.081 0.385 0.107 0.734 0.335 0.923 0.696 0.131 0.251 0.232 0.651 0.13 0.924-0.086 0.229-0.272 0.387-0.477 0.508-0.256 0.151-0.564 0.248-0.86 0.341-0.718 0.225-1.318 0.465-1.896 0.744l0.083-0.036c-0.159 0.080-0.292 0.158-0.42 0.245l0.013-0.008c-0.284 0.18-0.602 0.38-0.817 0.377-0.116-0.096-0.144-0.176-0.156-0.32-0.080-0.958 0.306-2.048 0.925-2.772 0.453-0.53 1.166-0.726 1.835-0.78zM52.213 4.855c-0.23-0.033-0.497-0.052-0.767-0.052-0.121 0-0.241 0.004-0.36 0.011l0.016-0.001c-1.261 0.103-2.328 0.563-3.153 1.545-0.768 0.915-1.235 2.106-1.235 3.406 0 0.176 0.008 0.349 0.025 0.52l-0.002-0.022c0.111 1.168 0.658 2.364 1.577 3.114 0.991 0.808 2.469 1.084 3.716 0.942 1.111-0.124 2.108-0.647 2.8-1.528 0.32-0.409 0.569-0.868 0.74-1.357-0.021-0.018-0.044-0.039-0.068-0.060-0.116-0.105-0.252-0.229-0.396-0.24-0.594 0.894-1.305 1.524-2.382 1.74-0.812 0.164-1.6 0.044-2.297-0.418-0.598-0.397-1.034-0.976-1.344-1.617 1.369-0.931 3.053-1.644 4.681-1.945 0.202-0.037 0.407-0.053 0.612-0.069 0.17-0.013 0.34-0.027 0.507-0.052 0.22-0.033 0.441-0.083 0.49-0.332 0.138-0.705-0.14-1.552-0.556-2.118-0.628-0.854-1.567-1.323-2.603-1.467zM51.012 5.828c0.424-0.034 0.837-0.055 1.246 0.095 0.393 0.142 0.708 0.427 0.879 0.809 0.113 0.252 0.162 0.535 0.055 0.798-0.067 0.154-0.169 0.282-0.298 0.376l-0.003 0.002c-0.308 0.225-1.070 0.491-1.733 0.722-0.325 0.114-0.628 0.22-0.84 0.308-0.34 0.152-0.669 0.336-0.996 0.52-0.181 0.102-0.364 0.204-0.547 0.3-0.154-0.938-0.057-1.893 0.453-2.716 0.422-0.679 1.017-1.038 1.783-1.213zM19.573 16.109c1.004-0.006 3.825-0.131 4.586 0.069 0.064 0.088 0.058 0.089 0.050 0.198-0.176 0.296-0.551 0.415-0.812 0.628-0.151 0.123-0.286 0.297-0.332 0.489-0.168 0.708-0.101 1.527-0.102 2.255l-0.020 3.074c-0.005 0.733 0.018 1.484-0.068 2.212-0.124 1.044-0.583 2.012-1.426 2.662-1.051 0.81-2.517 0.99-3.801 0.816-1.124-0.152-2.222-0.64-2.921-1.563-0.634-0.836-0.795-1.814-0.66-2.837 0.036-0.181 0.081-0.356 0.146-0.529 0.24-0.637 0.708-1.162 1.339-1.432 0.667-0.286 1.508-0.308 2.178-0.018 0.326 0.14 0.532 0.38 0.652 0.715 0.073 0.204 0.098 0.379 0.004 0.577-0.27 0.255-0.878-0.087-1.256 0.019-0.348 0.098-0.614 0.342-0.782 0.659-0.289 0.549-0.296 1.268-0.089 1.845 0.185 0.516 0.603 0.932 1.096 1.159 0.584 0.27 1.406 0.338 2.018 0.111 0.473-0.176 0.82-0.553 1.012-1.014 0.164-0.398 0.242-0.857 0.281-1.284 0.087-0.963 0.196-6.778-0.017-7.406-0.224-0.663-0.987-0.683-1.161-1.087 0-0.098 0.002-0.165 0.049-0.251l0.038-0.067zM40.317 26.88c0.428-1.060 0.798-2.151 1.193-3.225 0.308-0.836 0.687-1.7 0.876-2.57 0.040-0.186 0.058-0.369 0.005-0.554-0.158-0.564-0.887-0.519-1.052-0.956 0.023-0.096 0.009-0.138 0.101-0.196 0.169-0.108 3.143-0.119 3.508-0.073 0.121 0.015 0.207 0.043 0.287 0.14 0.009 0.209-0.043 0.305-0.231 0.412-0.302 0.171-0.687 0.258-0.915 0.54-0.356 0.443-1.702 4.229-2.034 5.091l-1.109 2.878c-0.279 0.722-0.54 1.508-0.956 2.165-0.252 0.398-0.59 0.782-1.001 1.020-0.6 0.345-1.36 0.409-2.022 0.222-0.516-0.146-0.987-0.465-1.233-0.949-0.196-0.384-0.243-0.894-0.1-1.304 0.107-0.305 0.354-0.557 0.648-0.688 0.19-0.084 0.502-0.158 0.699-0.052 0.468 0.255 0.164 1.097 0.343 1.546 0.061 0.151 0.149 0.258 0.304 0.32 0.251 0.1 0.685-0.038 0.911-0.148 0.764-0.373 1.084-1.573 1.339-2.315-0.32 0.006-0.692 0.044-1.007-0.010-0.058-0.008-0.11-0.024-0.157-0.048l0.003 0.001c-0.105-0.061-0.172-0.172-0.226-0.276-0.249-0.486-0.418-1.052-0.613-1.563l-1.212-3.191c-0.238-0.627-0.455-1.28-0.748-1.884-0.219-0.45-0.51-0.909-0.96-1.157-0.222-0.123-0.516-0.122-0.667-0.345-0.026-0.151 0.002-0.244 0.049-0.39 0.804-0.032 4.036-0.116 4.631 0.049 0.016 0.054 0.026 0.116 0.026 0.18 0 0.072-0.012 0.142-0.034 0.207l0.001-0.005c-0.071 0.176-0.412 0.23-0.569 0.293-0.17 0.068-0.316 0.171-0.382 0.348-0.072 0.196 0.024 0.513 0.080 0.712 0.246 0.871 0.644 1.734 0.971 2.583 0.409 1.060 0.777 2.16 1.253 3.191zM34.628 0.842c0.714-0.037 1.391 0.053 2.014 0.427 0.456 0.273 0.841 0.684 0.956 1.214 0.062 0.288 0.043 0.594-0.124 0.844-0.182 0.271-0.551 0.483-0.874 0.524-0.194 0.024-0.422-0.003-0.578-0.128-0.36-0.292-0.192-0.81-0.261-1.209-0.033-0.217-0.157-0.399-0.331-0.51l-0.003-0.002c-0.281-0.177-0.72-0.235-1.040-0.147-0.278 0.077-0.479 0.275-0.607 0.529-0.409 0.806-0.183 1.861 0.070 2.676 0.856 0.021 1.716 0.004 2.572 0.004 0.003 0.364-0.004 0.72-0.032 1.084-0.827-0.001-1.656-0.013-2.483 0.018-0.053 0.85-0.032 1.714-0.037 2.566-0.008 1.275-0.133 2.683 0.159 3.924 0.044 0.116 0.093 0.223 0.153 0.332 0.258 0.468 0.417 0.418 0.875 0.569 0.156 0.052 0.247 0.116 0.316 0.261 0 0.002 0 0.005 0 0.007 0 0.101-0.037 0.192-0.098 0.263l0-0c-0.041 0.026-0.057 0.041-0.11 0.051-0.166 0.031-4.158 0.014-4.384-0.023-0.156-0.027-0.264-0.060-0.362-0.192 0.064-0.377 0.484-0.35 0.736-0.594 0.289-0.279 0.434-0.653 0.514-1.040 0.175-0.842 0.108-1.796 0.104-2.655l-0.016-3.479-1.633-0.005c-0.033-0.36-0.036-0.723-0.044-1.083l1.626-0.001c-0.079-0.212-0.147-0.464-0.191-0.724l-0.004-0.026c-0.103-0.751 0.071-1.515 0.533-2.124 0.613-0.809 1.601-1.222 2.584-1.349z"></path>
<path d="M27.87 0.843c0.658-0.055 1.29-0.008 1.88 0.316 0.471 0.258 0.875 0.684 1.019 1.212 0.090 0.327 0.1 0.74-0.085 1.038-0.131 0.211-0.348 0.334-0.588 0.38-0.219 0.041-0.508 0.040-0.691-0.107-0.345-0.277-0.114-0.81-0.191-1.178-0.046-0.22-0.225-0.409-0.418-0.515-0.306-0.167-0.745-0.187-1.075-0.089-0.27 0.080-0.487 0.268-0.604 0.512l-0.003 0.006c-0.364 0.744-0.088 1.883 0.162 2.622 0.82 0.049 1.658 0.011 2.48 0.015 0.021 0.367 0.003 0.726-0.020 1.092-0.835-0.002-1.669 0.001-2.505 0.009-0.031 0.78-0.048 1.697-0.048 2.617 0 0.182 0.001 0.363 0.002 0.544l-0-0.028c-0.003 1.076-0.11 2.284 0.206 3.323 0.347 0.76 1.067 0.888 1.236 1.294-0.026 0.074-0.015 0.086-0.088 0.13-0.263 0.157-4.26 0.127-4.618 0.042-0.014-0.049-0.033-0.105-0.035-0.155-0.011-0.317 0.489-0.451 0.682-0.64 0.267-0.264 0.399-0.753 0.461-1.116 0.14-0.818 0.095-1.72 0.094-2.549l-0.007-3.463-1.628-0.007c-0.015-0.253-0.024-0.549-0.024-0.847 0-0.083 0.001-0.165 0.002-0.248l-0 0.012c0.519 0.005 1.038 0.005 1.558-0.002-0.080-0.265-0.165-0.531-0.206-0.804-0.111-0.745 0.051-1.482 0.507-2.087 0.612-0.814 1.564-1.191 2.545-1.329z"></path>
</symbol>
<symbol id="icon-svgFacebook" viewBox="0 0 32 32">
<path d="M29.333 16.405c0-7.409-5.97-13.415-13.333-13.415s-13.333 6.006-13.333 13.415c0 6.696 4.876 12.245 11.25 13.252v-9.374h-3.385v-3.878h3.385v-2.955c0-3.362 1.991-5.219 5.036-5.219 1.459 0 2.985 0.262 2.985 0.262v3.301h-1.681c-1.656 0-2.173 1.034-2.173 2.095v2.516h3.698l-0.591 3.878h-3.107v9.374c6.374-1.006 11.25-6.556 11.25-13.252z"></path>
</symbol>
</defs>
</svg>
